<svg width="256" height="165" viewBox="0 0 256 165" fill="none" xmlns="http://www.w3.org/2000/svg">
<path d="M96.5616 63.507L85.333 56.7723V80.3437L125.754 103.915V60.7009L96.5616 44.4253V36.5682L128.562 18.6091L160 36.5682L171.228 30.3948L128.562 5.13965L85.333 30.3948V50.5989L113.965 66.8743V83.7111L96.5616 73.609V63.507Z" fill="#D4B684"/>
<path d="M129.122 34.8847V27.5889L140.912 34.3236V42.1807L129.122 34.8847Z" fill="#D4B684"/>
<path d="M129.122 103.915V42.1806L140.912 48.9153L139.789 87.0782L171.227 34.8848V79.7827L129.122 103.915Z" fill="#D4B684"/>
<path d="M0.210815 124.572C0.210815 123.022 0.755771 121.764 1.84568 120.797C2.93559 119.83 4.35555 119.347 6.10555 119.347C7.88625 119.347 9.62859 119.899 11.3325 121.004C11.8852 121.357 12.2613 121.656 12.4608 121.902C12.5529 121.979 12.645 122.063 12.7371 122.155C12.7985 122.14 12.8523 122.124 12.8983 122.109C13.0058 122.078 13.0979 122.04 13.1746 121.994V122.615L12.6911 123.076C12.6911 123.076 12.6911 123.068 12.6911 123.053L12.1845 123.513C11.2942 122.546 10.3347 121.817 9.30623 121.326C8.29305 120.836 7.35665 120.59 6.497 120.59C5.46849 120.59 4.67025 120.912 4.10226 121.557C3.53428 122.186 3.25029 122.93 3.25029 123.79C3.25029 124.741 3.60336 125.477 4.3095 125.999C5.03099 126.505 6.10556 126.859 7.53318 127.058C11.8621 127.718 14.0266 129.682 14.0266 132.951C14.0266 134.531 13.5047 135.821 12.4608 136.818C11.4323 137.8 9.91254 138.291 7.90161 138.291C6.47398 138.291 5.1231 138.007 3.84897 137.44C2.57485 136.857 1.56169 135.928 0.809499 134.654C0.717394 134.685 0.625289 134.716 0.533183 134.746V134.125L1.73055 133.296C2.32923 134.539 3.15051 135.483 4.19437 136.127C5.23823 136.757 6.32047 137.071 7.44108 137.071C8.28538 137.071 8.96846 136.91 9.4904 136.588C10.0277 136.266 10.4192 135.844 10.6648 135.322C10.9258 134.785 11.0562 134.217 11.0562 133.619C11.0562 132.545 10.6801 131.731 9.92796 131.178C9.19111 130.611 8.07046 130.219 6.56608 130.005C2.32923 129.345 0.210815 127.534 0.210815 124.572ZM17.5174 131.133C16.9494 128.662 17.2871 126.367 18.5306 124.25C19.7739 122.117 21.616 120.666 24.0569 119.899C24.8704 119.685 25.6764 119.577 26.4746 119.577C28.5317 119.577 30.3891 120.198 32.047 121.442C33.7202 122.684 34.8639 124.319 35.4779 126.345C36.1073 128.877 35.7926 131.209 34.5338 133.343C33.2904 135.475 31.456 136.957 29.0305 137.785C28.2784 137.953 27.5338 138.038 26.797 138.038C24.6171 138.038 22.6676 137.401 20.9483 136.127C19.2443 134.839 18.1008 133.173 17.5174 131.133ZM32.6917 127.288C32.3847 126.184 31.8781 125.132 31.172 124.135C30.4659 123.122 29.6139 122.285 28.616 121.626C27.6183 120.966 26.559 120.636 25.4384 120.636C25.024 120.636 24.6095 120.69 24.195 120.797C22.9363 121.15 21.9691 121.848 21.2937 122.891C20.6336 123.92 20.2345 125.101 20.0964 126.436C19.9582 127.756 20.0503 129.045 20.3727 130.304C20.6797 131.486 21.1786 132.59 21.8693 133.619C22.5601 134.647 23.3814 135.491 24.3332 136.15C25.3003 136.795 26.3288 137.117 27.4187 137.117C27.8639 137.117 28.3091 137.056 28.7542 136.933C30.013 136.534 30.9878 135.805 31.6786 134.746C32.3694 133.672 32.7915 132.467 32.945 131.133C33.0986 129.782 33.0141 128.5 32.6917 127.288ZM39.2681 138.061C39.2681 138.061 39.2987 137.962 39.3601 137.762C39.4369 137.578 39.4753 137.485 39.4753 137.485H39.5444C39.6518 137.485 39.7363 137.278 39.7977 136.864C39.8591 136.45 39.8897 135.89 39.8897 135.184V122.454C39.8897 121.733 39.8591 121.173 39.7977 120.774C39.7363 120.36 39.6518 120.153 39.5444 120.153H39.4753C39.4753 120.153 39.4369 120.053 39.3601 119.853C39.2987 119.669 39.2681 119.577 39.2681 119.577H43.4588C43.4588 119.577 43.4282 119.669 43.3668 119.853C43.29 120.053 43.2516 120.153 43.2516 120.153H43.1825C43.0751 120.153 42.9906 120.36 42.9292 120.774C42.8678 121.173 42.8371 121.733 42.8371 122.454V136.933H48.5016C49.2231 136.918 49.7834 136.879 50.1825 136.818C50.597 136.757 50.8043 136.672 50.8043 136.565V136.519C50.8043 136.489 50.904 136.45 51.1036 136.404C51.2878 136.312 51.3799 136.281 51.3799 136.312V138.061H39.2681ZM51.3707 119.577H55.3773C55.3773 119.577 55.3466 119.669 55.2852 119.853C55.2084 120.053 55.1701 120.153 55.1701 120.153H55.147C55.1009 120.153 55.0856 120.245 55.1009 120.429C55.1317 120.612 55.1854 120.881 55.2621 121.235C55.3542 121.572 55.477 121.979 55.6305 122.454L59.7062 136.036L63.92 122.454C64.0736 121.979 64.1963 121.572 64.2885 121.235C64.3806 120.881 64.4343 120.612 64.4496 120.429C64.4803 120.245 64.4726 120.153 64.4266 120.153H64.4036C64.4036 120.153 64.3652 120.053 64.2885 119.853C64.2271 119.669 64.1963 119.577 64.1963 119.577H66.5451V120.153H66.4759C66.3685 120.153 66.215 120.36 66.0154 120.774C65.8312 121.173 65.624 121.733 65.3937 122.454L60.3739 138.061H57.5878L52.522 122.454C52.2917 121.733 52.0768 121.173 51.8773 120.774C51.6931 120.36 51.5396 120.153 51.4167 120.153H51.3707V119.577ZM70.5884 119.577H83.5062V121.326C83.5062 121.326 83.4141 121.296 83.2299 121.235C83.0304 121.158 82.9306 121.119 82.9306 121.119V121.073C82.9306 120.95 82.7233 120.858 82.3088 120.797C81.9097 120.735 81.3494 120.705 80.6279 120.705H74.1575V127.979H80.1674C80.8889 127.979 81.4492 127.948 81.8483 127.887C82.2628 127.825 82.47 127.741 82.47 127.633V127.564C82.47 127.564 82.5698 127.534 82.7694 127.473C82.9536 127.396 83.0457 127.357 83.0457 127.357V129.682C83.0457 129.682 82.9536 129.651 82.7694 129.591C82.5698 129.513 82.47 129.475 82.47 129.475V129.406C82.47 129.299 82.2628 129.214 81.8483 129.153C81.4492 129.091 80.8889 129.061 80.1674 129.061H74.1575V136.933H80.9733C81.6948 136.918 82.2551 136.879 82.6543 136.818C83.0687 136.757 83.2759 136.672 83.2759 136.565V136.519C83.2759 136.489 83.3757 136.45 83.5753 136.404C83.7595 136.312 83.8516 136.281 83.8516 136.312V138.061H70.5884C70.5884 138.061 70.6192 137.962 70.6805 137.762C70.7573 137.578 70.7957 137.485 70.7957 137.485H70.8648C70.9723 137.485 71.0566 137.278 71.118 136.864C71.1795 136.45 71.2101 135.89 71.2101 135.184V122.454C71.2101 121.733 71.1795 121.173 71.118 120.774C71.0566 120.36 70.9723 120.153 70.8648 120.153H70.7957C70.7957 120.153 70.7573 120.053 70.6805 119.853C70.6192 119.669 70.5884 119.577 70.5884 119.577ZM88.7006 119.853C88.64 119.669 88.6088 119.577 88.6088 119.577H95.1486C98.2795 119.577 100.644 120.367 102.241 121.948C103.853 123.513 104.658 125.899 104.658 129.107C104.658 132.099 103.937 134.339 102.493 135.829C101.051 137.317 98.8328 138.061 95.8391 138.061H88.6088C88.6088 138.061 88.64 137.962 88.7006 137.762C88.7781 137.578 88.816 137.485 88.816 137.485H88.885C88.9928 137.485 89.077 137.278 89.1385 136.864C89.2 136.45 89.2303 135.89 89.2303 135.184V122.454C89.2303 121.733 89.2 121.173 89.1385 120.774C89.077 120.36 88.9928 120.153 88.885 120.153H88.816C88.816 120.153 88.7781 120.053 88.7006 119.853ZM94.2964 120.659H92.1776V136.979H95.7237C97.6892 136.979 99.1393 136.327 100.076 135.023C101.012 133.703 101.48 131.731 101.48 129.107C101.48 126.268 100.913 124.15 99.7768 122.753C98.6408 121.357 96.8143 120.659 94.2964 120.659ZM124.626 138.061H120.436C120.436 138.061 120.466 137.962 120.528 137.762C120.605 137.578 120.643 137.485 120.643 137.485H120.712C120.819 137.485 120.904 137.278 120.965 136.864C121.026 136.45 121.058 135.89 121.058 135.184V122.454C121.058 121.733 121.026 121.173 120.965 120.774C120.904 120.36 120.819 120.153 120.712 120.153H120.643C120.643 120.153 120.605 120.053 120.528 119.853C120.466 119.669 120.436 119.577 120.436 119.577H124.626C124.626 119.577 124.596 119.669 124.535 119.853C124.458 120.053 124.419 120.153 124.419 120.153H124.35C124.242 120.153 124.158 120.36 124.097 120.774C124.035 121.173 124.005 121.733 124.005 122.454V135.184C124.005 135.89 124.035 136.45 124.097 136.864C124.158 137.278 124.242 137.485 124.35 137.485H124.419C124.419 137.485 124.458 137.578 124.535 137.762C124.596 137.962 124.626 138.061 124.626 138.061ZM130.029 119.853C129.952 119.669 129.913 119.577 129.913 119.577H134.104L138.686 135.851L143.245 119.577H147.552C147.552 119.577 147.513 119.669 147.437 119.853C147.375 120.053 147.344 120.153 147.344 120.153H147.275C147.168 120.153 147.084 120.36 147.022 120.774C146.961 121.173 146.93 121.733 146.93 122.454V135.184C146.93 135.89 146.961 136.45 147.022 136.864C147.084 137.278 147.168 137.485 147.275 137.485H147.344C147.344 137.485 147.375 137.578 147.437 137.762C147.513 137.962 147.552 138.061 147.552 138.061H143.476C143.476 138.061 143.506 137.962 143.568 137.762C143.629 137.578 143.66 137.485 143.66 137.485H143.73C143.837 137.485 143.921 137.278 143.982 136.864C144.044 136.45 144.075 135.89 144.075 135.184V121.211L139.309 138.061H136.683L131.894 121.418V135.184C131.894 135.89 131.924 136.45 131.986 136.864C132.047 137.278 132.131 137.485 132.239 137.485H132.308C132.308 137.485 132.338 137.578 132.4 137.762C132.477 137.962 132.515 138.061 132.515 138.061H129.913C129.913 138.061 129.952 137.962 130.029 137.762C130.09 137.578 130.12 137.485 130.12 137.485H130.189C130.297 137.485 130.381 137.278 130.443 136.864C130.504 136.45 130.536 135.89 130.536 135.184V122.454C130.536 121.733 130.504 121.173 130.443 120.774C130.381 120.36 130.297 120.153 130.189 120.153H130.12C130.12 120.153 130.09 120.053 130.029 119.853ZM152.701 138.061C152.701 138.061 152.731 137.962 152.792 137.762C152.869 137.578 152.908 137.485 152.908 137.485H152.977C153.084 137.485 153.169 137.278 153.23 136.864C153.291 136.45 153.322 135.89 153.322 135.184V122.454C153.322 121.733 153.291 121.173 153.23 120.774C153.169 120.36 153.084 120.153 152.977 120.153H152.908C152.908 120.153 152.869 120.053 152.792 119.853C152.731 119.669 152.701 119.577 152.701 119.577H159.885C163.891 119.577 165.91 121.388 165.94 125.009C165.94 128.569 163.922 130.35 159.885 130.35H156.269V135.184C156.269 135.89 156.3 136.45 156.361 136.864C156.423 137.278 156.507 137.485 156.615 137.485H156.684C156.684 137.485 156.722 137.578 156.799 137.762C156.861 137.962 156.891 138.061 156.891 138.061H152.701ZM156.269 129.245H159.954C161.965 129.245 162.978 127.84 162.993 125.032C162.993 124.081 162.847 123.283 162.556 122.639C162.28 121.979 161.78 121.487 161.058 121.166C160.353 120.828 159.362 120.659 158.088 120.659H156.269V129.245ZM170.628 119.577H183.546V121.326C183.546 121.326 183.454 121.296 183.27 121.235C183.07 121.158 182.971 121.119 182.971 121.119V121.073C182.971 120.95 182.764 120.858 182.349 120.797C181.95 120.735 181.389 120.705 180.668 120.705H174.198V127.979H180.207C180.929 127.979 181.49 127.948 181.889 127.887C182.303 127.825 182.51 127.741 182.51 127.633V127.564C182.51 127.564 182.61 127.534 182.809 127.473C182.994 127.396 183.085 127.357 183.085 127.357V129.682C183.085 129.682 182.994 129.651 182.809 129.591C182.61 129.513 182.51 129.475 182.51 129.475V129.406C182.51 129.299 182.303 129.214 181.889 129.153C181.49 129.091 180.929 129.061 180.207 129.061H174.198V136.933H181.014C181.735 136.918 182.296 136.879 182.695 136.818C183.109 136.757 183.316 136.672 183.316 136.565V136.519C183.316 136.489 183.416 136.45 183.615 136.404C183.8 136.312 183.891 136.281 183.891 136.312V138.061H170.628C170.628 138.061 170.659 137.962 170.721 137.762C170.797 137.578 170.836 137.485 170.836 137.485H170.905C171.012 137.485 171.096 137.278 171.158 136.864C171.219 136.45 171.25 135.89 171.25 135.184V122.454C171.25 121.733 171.219 121.173 171.158 120.774C171.096 120.36 171.012 120.153 170.905 120.153H170.836C170.836 120.153 170.797 120.053 170.721 119.853C170.659 119.669 170.628 119.577 170.628 119.577ZM188.649 138.061C188.649 138.061 188.68 137.962 188.741 137.762C188.818 137.578 188.856 137.485 188.856 137.485H188.925C189.048 137.485 189.133 137.263 189.179 136.818C189.24 136.419 189.271 135.874 189.271 135.184V122.454C189.271 122.316 189.256 121.902 189.224 121.211C189.194 120.506 189.094 120.153 188.925 120.153H188.856C188.856 120.153 188.818 120.053 188.741 119.853C188.695 119.761 188.664 119.669 188.649 119.577H192.84C193.438 119.577 194.052 119.577 194.682 119.577C195.71 119.577 196.723 119.723 197.721 120.014C198.734 120.306 199.571 120.797 200.232 121.487C200.907 122.178 201.245 123.13 201.245 124.342C201.245 125.647 200.845 126.713 200.047 127.542C199.249 128.37 198.251 128.961 197.053 129.314C197.99 129.575 198.68 130.005 199.126 130.603C199.571 131.186 199.909 131.946 200.139 132.882L200.807 135.345C200.853 135.544 200.907 135.797 200.968 136.105C201.045 136.411 201.152 136.696 201.29 136.957C201.444 137.202 201.651 137.325 201.912 137.325C202.265 137.325 202.541 137.209 202.741 136.979C202.956 136.749 203.148 136.504 203.317 136.243L204.077 136.772C203.677 137.416 203.256 137.908 202.81 138.246C202.381 138.598 201.758 138.775 200.945 138.775C200.101 138.775 199.456 138.552 199.01 138.107C198.581 137.662 198.258 137.102 198.044 136.427C197.829 135.736 197.66 135.007 197.537 134.24C197.415 133.457 197.261 132.728 197.077 132.053C196.893 131.363 196.609 130.794 196.225 130.35C195.856 129.905 195.304 129.682 194.567 129.682H192.218V135.184C192.218 135.89 192.248 136.45 192.31 136.864C192.371 137.278 192.456 137.485 192.563 137.485H192.632C192.632 137.485 192.671 137.578 192.748 137.762C192.809 137.962 192.84 138.061 192.84 138.061H188.649ZM192.218 128.808H193.853C195.326 128.808 196.432 128.493 197.169 127.864C197.921 127.219 198.297 126.13 198.297 124.595C198.297 123.199 197.967 122.14 197.307 121.418C196.662 120.697 195.626 120.336 194.199 120.336C193.584 120.336 193.139 120.405 192.863 120.543C192.586 120.681 192.41 120.905 192.333 121.211C192.257 121.518 192.218 121.932 192.218 122.454V128.808ZM212.15 138.061H207.959C207.959 138.061 207.99 137.962 208.051 137.762C208.128 137.578 208.166 137.485 208.166 137.485H208.235C208.343 137.485 208.427 137.278 208.488 136.864C208.55 136.45 208.58 135.89 208.58 135.184V122.454C208.58 121.733 208.55 121.173 208.488 120.774C208.427 120.36 208.343 120.153 208.235 120.153H208.166C208.166 120.153 208.128 120.053 208.051 119.853C207.99 119.669 207.959 119.577 207.959 119.577H212.15C212.15 119.577 212.119 119.669 212.057 119.853C211.981 120.053 211.943 120.153 211.943 120.153H211.874C211.766 120.153 211.682 120.36 211.62 120.774C211.559 121.173 211.528 121.733 211.528 122.454V135.184C211.528 135.89 211.559 136.45 211.62 136.864C211.682 137.278 211.766 137.485 211.874 137.485H211.943C211.943 137.485 211.981 137.578 212.057 137.762C212.119 137.962 212.15 138.061 212.15 138.061ZM217.344 119.853C217.283 119.669 217.252 119.577 217.252 119.577H221.443C221.443 119.577 221.412 119.669 221.351 119.853C221.274 120.053 221.236 120.153 221.236 120.153H221.167C221.059 120.153 220.975 120.36 220.914 120.774C220.852 121.173 220.821 121.733 220.821 122.454V130.396C220.821 132.575 221.175 134.225 221.88 135.345C222.602 136.45 223.753 137.002 225.335 137.002C226.885 137.002 228.098 136.465 228.973 135.391C229.863 134.317 230.308 132.721 230.308 130.603V122.454C230.308 121.733 230.278 121.173 230.216 120.774C230.155 120.36 230.07 120.153 229.963 120.153H229.894C229.894 120.153 229.863 120.053 229.801 119.853C229.725 119.669 229.687 119.577 229.687 119.577H232.334C232.319 119.577 232.28 119.669 232.22 119.853C232.142 120.053 232.112 120.153 232.127 120.153H232.058C231.966 120.153 231.89 120.306 231.828 120.612C231.767 120.905 231.728 121.319 231.713 121.856V130.856C231.713 135.752 229.403 138.23 224.782 138.291C220.222 138.291 217.92 135.836 217.874 130.925V122.454C217.874 121.733 217.843 121.173 217.782 120.774C217.72 120.36 217.636 120.153 217.528 120.153H217.459C217.459 120.153 217.421 120.053 217.344 119.853ZM237.483 119.853C237.406 119.669 237.368 119.577 237.368 119.577H241.559L246.141 135.851L250.701 119.577H255.006C255.006 119.577 254.968 119.669 254.891 119.853C254.829 120.053 254.799 120.153 254.799 120.153H254.73C254.622 120.153 254.538 120.36 254.477 120.774C254.415 121.173 254.385 121.733 254.385 122.454V135.184C254.385 135.89 254.415 136.45 254.477 136.864C254.538 137.278 254.622 137.485 254.73 137.485H254.799C254.799 137.485 254.829 137.578 254.891 137.762C254.968 137.962 255.006 138.061 255.006 138.061H250.93C250.93 138.061 250.962 137.962 251.022 137.762C251.084 137.578 251.115 137.485 251.115 137.485H251.184C251.291 137.485 251.376 137.278 251.437 136.864C251.499 136.45 251.529 135.89 251.529 135.184V121.211L246.763 138.061H244.138L239.348 121.418V135.184C239.348 135.89 239.379 136.45 239.441 136.864C239.501 137.278 239.586 137.485 239.693 137.485H239.762C239.762 137.485 239.794 137.578 239.855 137.762C239.932 137.962 239.97 138.061 239.97 138.061H237.368C237.368 138.061 237.406 137.962 237.483 137.762C237.544 137.578 237.576 137.485 237.576 137.485H237.645C237.752 137.485 237.837 137.278 237.898 136.864C237.959 136.45 237.99 135.89 237.99 135.184V122.454C237.99 121.733 237.959 121.173 237.898 120.774C237.837 120.36 237.752 120.153 237.645 120.153H237.576C237.576 120.153 237.544 120.053 237.483 119.853ZM55.5986 146.746H58.4605C58.4605 146.746 58.4385 146.812 58.3947 146.943C58.3398 147.086 58.3125 147.157 58.3125 147.157H58.296C58.2631 147.157 58.2522 147.223 58.2631 147.354C58.285 147.486 58.3234 147.678 58.3782 147.93C58.444 148.171 58.5317 148.461 58.6414 148.801L61.5526 158.502L64.5625 148.801C64.6721 148.461 64.7598 148.171 64.8256 147.93C64.8914 147.678 64.9298 147.486 64.9408 147.354C64.9627 147.223 64.9572 147.157 64.9243 147.157H64.9078C64.9078 147.157 64.8805 147.086 64.8256 146.943C64.7818 146.812 64.7598 146.746 64.7598 146.746H66.4374V147.157H66.3881C66.3114 147.157 66.2017 147.305 66.0592 147.601C65.9276 147.886 65.7796 148.286 65.6151 148.801L62.0296 159.949H60.0394L56.421 148.801C56.2565 148.286 56.103 147.886 55.9605 147.601C55.8289 147.305 55.7193 147.157 55.6315 147.157H55.5986V146.746ZM75.2203 146.746H84.4471V147.996C84.4471 147.996 84.3814 147.974 84.2501 147.93C84.1074 147.875 84.0362 147.848 84.0362 147.848V147.815C84.0362 147.727 83.8881 147.662 83.592 147.618C83.307 147.573 82.9067 147.551 82.3914 147.551H77.7697V152.747H82.0624C82.5778 152.747 82.9781 152.725 83.2631 152.681C83.5592 152.638 83.7072 152.577 83.7072 152.5V152.452C83.7072 152.452 83.7785 152.43 83.921 152.386C84.0526 152.331 84.1184 152.303 84.1184 152.303V153.964C84.1184 153.964 84.0526 153.942 83.921 153.898C83.7785 153.843 83.7072 153.816 83.7072 153.816V153.767C83.7072 153.69 83.5592 153.629 83.2631 153.586C82.9781 153.542 82.5778 153.52 82.0624 153.52H77.7697V159.143H82.6381C83.1535 159.132 83.5537 159.105 83.8388 159.061C84.1349 159.017 84.2829 158.957 84.2829 158.88V158.847C84.2829 158.825 84.3545 158.798 84.4968 158.765C84.6282 158.7 84.6938 158.678 84.6938 158.7V159.949H75.2203C75.2203 159.949 75.2423 159.877 75.2861 159.735C75.3409 159.604 75.3684 159.538 75.3684 159.538H75.4177C75.4944 159.538 75.5548 159.39 75.5986 159.094C75.6425 158.798 75.6645 158.398 75.6645 157.894V148.801C75.6645 148.286 75.6425 147.886 75.5986 147.601C75.5548 147.305 75.4944 147.157 75.4177 147.157H75.3684C75.3684 147.157 75.3409 147.086 75.2861 146.943C75.2423 146.812 75.2203 146.746 75.2203 146.746ZM94.069 146.943C94.0252 146.812 94.0033 146.746 94.0033 146.746H96.8648L102.835 158.617V148.801C102.835 148.286 102.813 147.886 102.77 147.601C102.726 147.305 102.665 147.157 102.589 147.157H102.54C102.54 147.157 102.518 147.086 102.474 146.943C102.418 146.812 102.392 146.746 102.392 146.746H104.283C104.283 146.746 104.255 146.812 104.2 146.943C104.157 147.086 104.135 147.157 104.135 147.157H104.086C104.008 147.157 103.949 147.305 103.905 147.601C103.861 147.886 103.839 148.286 103.839 148.801V159.949H101.092L95.4341 148.703V157.894C95.445 158.409 95.4728 158.814 95.5166 159.11C95.5604 159.395 95.6202 159.538 95.6976 159.538H95.7305C95.7305 159.538 95.7574 159.604 95.8122 159.735C95.856 159.877 95.8779 159.949 95.8779 159.949H94.0033C94.0033 159.949 94.0252 159.877 94.069 159.735C94.1237 159.604 94.1515 159.538 94.1515 159.538H94.2004C94.277 159.538 94.3376 159.39 94.3814 159.094C94.4252 158.798 94.4471 158.398 94.4471 157.894V148.801C94.4471 148.286 94.4252 147.886 94.3814 147.601C94.3376 147.305 94.277 147.157 94.2004 147.157H94.1515C94.1515 147.157 94.1237 147.086 94.069 146.943ZM113.46 147.93C113.318 147.974 113.246 147.996 113.246 147.996V146.746H123.46V147.996C123.46 147.996 123.394 147.974 123.263 147.93C123.121 147.875 123.049 147.848 123.049 147.848V147.815C123.049 147.727 122.901 147.662 122.605 147.618C122.32 147.573 121.92 147.551 121.405 147.551H119.415V157.894C119.415 158.398 119.437 158.798 119.48 159.094C119.524 159.39 119.585 159.538 119.661 159.538H119.71C119.71 159.538 119.732 159.604 119.776 159.735C119.831 159.877 119.858 159.949 119.858 159.949H116.865C116.865 159.949 116.887 159.877 116.93 159.735C116.986 159.604 117.013 159.538 117.013 159.538H117.046C117.133 159.538 117.199 159.39 117.244 159.094C117.288 158.798 117.309 158.398 117.309 157.894V147.551H115.303C114.798 147.551 114.398 147.573 114.102 147.618C113.806 147.662 113.658 147.727 113.658 147.815V147.848C113.658 147.848 113.592 147.875 113.46 147.93ZM132.54 146.943C132.496 146.812 132.473 146.746 132.473 146.746H135.467C135.467 146.746 135.445 146.812 135.401 146.943C135.346 147.086 135.319 147.157 135.319 147.157H135.27C135.193 147.157 135.133 147.305 135.089 147.601C135.045 147.886 135.023 148.286 135.023 148.801V154.474C135.023 156.03 135.275 157.209 135.779 158.009C136.295 158.798 137.117 159.193 138.247 159.193C139.354 159.193 140.221 158.809 140.845 158.041C141.481 157.274 141.8 156.135 141.8 154.622V148.801C141.8 148.286 141.778 147.886 141.734 147.601C141.69 147.305 141.629 147.157 141.553 147.157H141.503C141.503 147.157 141.481 147.086 141.437 146.943C141.383 146.812 141.355 146.746 141.355 146.746H143.246C143.235 146.746 143.208 146.812 143.165 146.943C143.11 147.086 143.088 147.157 143.099 147.157H143.049C142.984 147.157 142.929 147.267 142.885 147.486C142.841 147.694 142.813 147.99 142.802 148.374V154.803C142.802 158.299 141.152 160.069 137.852 160.113C134.595 160.113 132.951 158.36 132.918 154.852V148.801C132.918 148.286 132.896 147.886 132.852 147.601C132.808 147.305 132.748 147.157 132.671 147.157H132.621C132.621 147.157 132.594 147.086 132.54 146.943ZM152.72 159.949C152.72 159.949 152.743 159.877 152.786 159.735C152.841 159.604 152.868 159.538 152.868 159.538H152.918C153.005 159.538 153.066 159.379 153.099 159.061C153.143 158.776 153.165 158.387 153.165 157.894V148.801C153.165 148.703 153.154 148.407 153.132 147.913C153.11 147.409 153.038 147.157 152.918 147.157H152.868C152.868 147.157 152.841 147.086 152.786 146.943C152.754 146.878 152.731 146.812 152.72 146.746H155.714C156.141 146.746 156.58 146.746 157.03 146.746C157.764 146.746 158.488 146.85 159.201 147.059C159.924 147.267 160.522 147.618 160.994 148.111C161.476 148.604 161.717 149.284 161.717 150.149C161.717 151.081 161.432 151.843 160.861 152.435C160.291 153.027 159.579 153.449 158.723 153.701C159.393 153.887 159.886 154.194 160.204 154.622C160.522 155.039 160.763 155.581 160.928 156.249L161.405 158.009C161.437 158.152 161.476 158.332 161.52 158.551C161.575 158.77 161.651 158.973 161.75 159.159C161.859 159.335 162.008 159.423 162.194 159.423C162.446 159.423 162.643 159.34 162.786 159.176C162.94 159.012 163.077 158.836 163.197 158.65L163.74 159.028C163.455 159.488 163.154 159.84 162.835 160.08C162.529 160.333 162.084 160.458 161.503 160.458C160.9 160.458 160.44 160.3 160.122 159.982C159.815 159.664 159.585 159.264 159.431 158.781C159.277 158.288 159.157 157.768 159.069 157.22C158.981 156.661 158.872 156.14 158.74 155.657C158.609 155.164 158.406 154.759 158.131 154.441C157.869 154.123 157.474 153.964 156.947 153.964H155.27V157.894C155.27 158.398 155.292 158.798 155.336 159.094C155.379 159.39 155.44 159.538 155.517 159.538H155.565C155.565 159.538 155.593 159.604 155.648 159.735C155.692 159.877 155.714 159.949 155.714 159.949H152.72ZM155.27 153.339H156.438C157.49 153.339 158.28 153.115 158.806 152.665C159.343 152.205 159.612 151.426 159.612 150.33C159.612 149.333 159.376 148.577 158.904 148.061C158.444 147.546 157.704 147.289 156.684 147.289C156.246 147.289 155.928 147.338 155.73 147.437C155.533 147.535 155.407 147.694 155.352 147.913C155.297 148.133 155.27 148.428 155.27 148.801V153.339ZM172.408 146.746H181.634V147.996C181.634 147.996 181.569 147.974 181.437 147.93C181.295 147.875 181.224 147.848 181.224 147.848V147.815C181.224 147.727 181.075 147.662 180.78 147.618C180.494 147.573 180.094 147.551 179.579 147.551H174.957V152.747H179.25C179.765 152.747 180.166 152.725 180.45 152.681C180.747 152.638 180.894 152.577 180.894 152.5V152.452C180.894 152.452 180.966 152.43 181.108 152.386C181.24 152.331 181.306 152.303 181.306 152.303V153.964C181.306 153.964 181.24 153.942 181.108 153.898C180.966 153.843 180.894 153.816 180.894 153.816V153.767C180.894 153.69 180.747 153.629 180.45 153.586C180.166 153.542 179.765 153.52 179.25 153.52H174.957V159.143H179.826C180.341 159.132 180.741 159.105 181.026 159.061C181.322 159.017 181.47 158.957 181.47 158.88V158.847C181.47 158.825 181.542 158.798 181.684 158.765C181.816 158.7 181.881 158.678 181.881 158.7V159.949H172.408C172.408 159.949 172.429 159.877 172.473 159.735C172.529 159.604 172.556 159.538 172.556 159.538H172.605C172.682 159.538 172.743 159.39 172.786 159.094C172.83 158.798 172.852 158.398 172.852 157.894V148.801C172.852 148.286 172.83 147.886 172.786 147.601C172.743 147.305 172.682 147.157 172.605 147.157H172.556C172.556 147.157 172.529 147.086 172.473 146.943C172.429 146.812 172.408 146.746 172.408 146.746ZM190.122 150.314C190.122 149.207 190.511 148.308 191.289 147.618C192.068 146.927 193.082 146.581 194.333 146.581C195.604 146.581 196.849 146.976 198.066 147.765C198.461 148.018 198.729 148.231 198.872 148.407C198.937 148.461 199.003 148.522 199.069 148.588C199.113 148.577 199.151 148.566 199.184 148.555C199.261 148.533 199.327 148.505 199.382 148.472V148.917L199.036 149.245C199.036 149.245 199.036 149.24 199.036 149.229L198.674 149.557C198.039 148.867 197.353 148.346 196.618 147.996C195.895 147.645 195.226 147.47 194.612 147.47C193.877 147.47 193.307 147.699 192.901 148.16C192.496 148.609 192.293 149.141 192.293 149.755C192.293 150.435 192.545 150.961 193.049 151.334C193.565 151.695 194.333 151.947 195.352 152.09C198.444 152.561 199.99 153.964 199.99 156.299C199.99 157.428 199.618 158.349 198.872 159.061C198.137 159.763 197.052 160.113 195.615 160.113C194.595 160.113 193.63 159.91 192.72 159.505C191.81 159.089 191.086 158.425 190.549 157.515C190.483 157.537 190.418 157.559 190.352 157.582V157.137L191.208 156.545C191.634 157.434 192.221 158.107 192.967 158.567C193.713 159.017 194.486 159.242 195.286 159.242C195.889 159.242 196.377 159.126 196.75 158.897C197.133 158.667 197.413 158.365 197.589 157.993C197.775 157.609 197.869 157.203 197.869 156.775C197.869 156.008 197.6 155.427 197.063 155.033C196.536 154.627 195.736 154.347 194.661 154.194C191.634 153.723 190.122 152.43 190.122 150.314Z" fill="#D4B684"/>
</svg>
